<svg xmlns="http://www.w3.org/2000/svg" width="114" height="108.82" viewBox="0 0 114 108.82">
  <path id="Icon_simple-adobephotoshop" data-name="Icon simple-adobephotoshop" d="M0,.45V109.27H114V.45ZM4.75,5.1h104.5v99.519H4.75Zm22.8,20.834c0-.312.665-.539,1.064-.539,3.059-.153,7.543-.233,12.245-.233,13.167,0,18.288,7.069,18.288,16.118,0,11.812-8.75,16.881-19.485,16.881-1.8,0-2.422-.079-3.681-.079V75.949c0,.386-.157.539-.546.539H28.1c-.394,0-.546-.14-.546-.525V25.934Zm8.431,24.7c1.092.074,1.957.074,3.847.074,5.557,0,10.782-1.916,10.782-9.282,0-5.906-3.733-8.9-10.079-8.9-1.881,0-3.681.074-4.546.153V50.651Zm40.883-5.525c-3.762,0-5.016,1.842-5.016,3.376,0,1.688.855,2.837,5.876,5.371,7.448,3.534,9.794,6.906,9.794,11.891,0,7.441-5.795,11.44-13.632,11.44a21.124,21.124,0,0,1-9.737-2c-.309-.153-.38-.381-.38-.767V67.6c0-.465.228-.619.541-.391a17.773,17.773,0,0,0,9.557,2.762c3.762,0,5.33-1.535,5.33-3.609,0-1.688-1.093-3.148-5.876-5.6C66.576,57.6,63.754,54.39,63.754,49.01c0-5.985,4.778-10.975,13.086-10.975a22.566,22.566,0,0,1,8.521,1.3,1.007,1.007,0,0,1,.475.921v6.371c0,.386-.238.619-.713.465a17.3,17.3,0,0,0-8.279-2Z" transform="translate(0 -0.45)"/>
</svg>
