<svg xmlns="http://www.w3.org/2000/svg" width="114.473" height="108.27" viewBox="0 0 114.473 108.27">
  <path id="Icon_simple-javascript" data-name="Icon simple-javascript" d="M0,0H114.473V108.27H0ZM105.1,82.447c-.835-4.94-4.235-9.09-14.323-12.961-3.51-1.556-7.412-2.639-8.571-5.143a5.054,5.054,0,0,1-.219-3.18c.715-2.914,4.364-3.789,7.226-2.977a7.621,7.621,0,0,1,4.655,4.06c4.932-3.05,4.932-3.05,8.371-5.075a18.77,18.77,0,0,0-2.8-3.519c-3-3.18-7.007-4.8-13.517-4.665l-3.363.4A15.572,15.572,0,0,0,74.4,53.923c-5.437,5.824-3.868,15.974,2.714,20.17,6.511,4.6,16.031,5.612,17.247,9.947,1.145,5.278-4.15,6.97-9.377,6.361-3.868-.812-6.01-2.644-8.371-6.027l-8.729,4.741c1,2.165,2.146,3.108,3.863,5,8.3,7.922,29.047,7.516,32.773-4.529a14.483,14.483,0,0,0,.353-7.444l.219.3ZM62.249,49.763H51.527c0,8.743-.043,17.431-.043,26.188,0,5.558.3,10.66-.658,12.23-1.574,3.108-5.628,2.711-7.469,2.165A8.951,8.951,0,0,1,39.4,86.489a3.864,3.864,0,0,0-.606-.884l-8.7,5.075A16.267,16.267,0,0,0,36.4,97.524c4.078,2.3,9.558,3.045,15.3,1.827,3.735-1.02,6.954-3.117,8.638-6.365,2.433-4.2,1.917-9.338,1.894-15.095.057-9.266,0-18.537,0-27.875l.019-.253Z"/>
</svg>
