<svg xmlns="http://www.w3.org/2000/svg" width="53.892" height="51.107" viewBox="0 0 53.892 51.107">
  <path id="Icon_ionic-logo-github" data-name="Icon ionic-logo-github" d="M28.7,2.25C14.092,2.25,2.25,13.759,2.25,27.941A25.772,25.772,0,0,0,20.337,52.313a2.184,2.184,0,0,0,.449.045,1.244,1.244,0,0,0,1.358-1.275c0-.615-.024-2.226-.035-4.373a12.731,12.731,0,0,1-2.668.3c-5.089,0-6.246-3.747-6.246-3.747-1.2-2.964-2.94-3.758-2.94-3.758-2.3-1.532-.012-1.577.165-1.577h.012a5.652,5.652,0,0,1,4.05,2.662A5.236,5.236,0,0,0,19.157,43.4a7.77,7.77,0,0,0,3.022-.671,5.439,5.439,0,0,1,1.676-3.434c-5.868-.649-12.042-2.852-12.042-12.695a9.759,9.759,0,0,1,2.715-6.89,8.995,8.995,0,0,1,.26-6.8,2.317,2.317,0,0,1,.59-.056c.956,0,3.117.347,6.682,2.7a25.9,25.9,0,0,1,13.247,0c3.566-2.349,5.726-2.7,6.682-2.7a2.317,2.317,0,0,1,.59.056,8.995,8.995,0,0,1,.26,6.8,9.8,9.8,0,0,1,2.715,6.89c0,9.865-6.187,12.035-12.078,12.672a6.053,6.053,0,0,1,1.795,4.753c0,3.434-.035,6.208-.035,7.046a1.237,1.237,0,0,0,1.346,1.286,2.407,2.407,0,0,0,.472-.045A25.767,25.767,0,0,0,55.142,27.941C55.142,13.759,43.3,2.25,28.7,2.25Z" transform="translate(-1.75 -1.75)" fill="#fff" stroke="#fff" stroke-width="1"/>
</svg>
