<svg xmlns="http://www.w3.org/2000/svg" width="114" height="108.539" viewBox="0 0 114 108.539">
  <path id="Icon_simple-adobexd" data-name="Icon simple-adobexd" d="M93.813.45H20.188A19.938,19.938,0,0,0,0,20.163V89.276a19.938,19.938,0,0,0,20.188,19.713H93.813A19.938,19.938,0,0,0,114,89.276V20.163A19.938,19.938,0,0,0,93.813.45ZM109.2,87.467A16.6,16.6,0,0,1,104.2,99.4a17.42,17.42,0,0,1-12.188,4.955H21.993A17.072,17.072,0,0,1,4.75,87.513V21.926A17.073,17.073,0,0,1,21.993,5.088H91.96A17.044,17.044,0,0,1,109.2,21.926ZM45.078,51.241,58.378,76.2c.238.371.1.742-.285.742H49.828a.934.934,0,0,1-1-.6C45.79,70.212,42.7,64.089,39.52,57.5h-.1c-2.85,6.215-5.985,12.756-9.025,18.878a.915.915,0,0,1-.855.51H21.708c-.475,0-.523-.371-.285-.649L34.438,52.029,21.85,27.538a.375.375,0,0,1,.285-.649H30.3c.475,0,.665.093.855.51,2.993,6.123,6.033,12.431,8.883,18.6h.095c2.755-6.123,5.795-12.477,8.74-18.554.237-.371.38-.6.855-.6H57.38c.38,0,.523.278.285.649ZM60.7,58.8c0-10.808,7.363-19.249,19.047-19.249a21.568,21.568,0,0,1,2.47.093V27.353a.471.471,0,0,1,.475-.464H90.2c.38,0,.475.139.475.371V69.841a32.27,32.27,0,0,0,.237,4.546c0,.278-.1.371-.38.51a28.863,28.863,0,0,1-12.16,2.69C68.067,77.633,60.7,71.418,60.7,58.8ZM82.223,46.927a7.337,7.337,0,0,0-2.755-.464c-5.985,0-10.165,4.5-10.165,11.967,0,8.535,4.275,11.967,9.642,11.967a9.157,9.157,0,0,0,3.278-.51V46.927Z" transform="translate(0 -0.45)"/>
</svg>
