<svg xmlns="http://www.w3.org/2000/svg" width="52.706" height="50.691" viewBox="0 0 52.706 50.691">
  <path id="Icon_awesome-linkedin" data-name="Icon awesome-linkedin" d="M48.942,2.25H3.753A3.709,3.709,0,0,0,0,5.9V49.287a3.709,3.709,0,0,0,3.753,3.655H48.942a3.719,3.719,0,0,0,3.765-3.655V5.9A3.719,3.719,0,0,0,48.942,2.25ZM15.93,45.7H8.118V21.508h7.824V45.7ZM12.024,18.2a4.447,4.447,0,0,1-4.529-4.356,4.447,4.447,0,0,1,4.529-4.356,4.455,4.455,0,0,1,4.529,4.356A4.44,4.44,0,0,1,12.024,18.2ZM45.212,45.7H37.4V33.932c0-2.806-.059-6.416-4.059-6.416-4.071,0-4.694,3.055-4.694,6.212V45.7H20.835V21.508H28.33v3.3h.106a8.292,8.292,0,0,1,7.4-3.9c7.906,0,9.377,5.013,9.377,11.53Z" transform="translate(0 -2.25)"/>
</svg>
