<svg xmlns="http://www.w3.org/2000/svg" width="52.442" height="50.203" viewBox="0 0 52.442 50.203">
  <path id="Icon_awesome-twitter" data-name="Icon awesome-twitter" d="M47.052,15.892c.033.549.033,1.1.033,1.647,0,16.747-10.815,36.044-30.58,36.044A27.14,27.14,0,0,1,0,47.9a18.9,18.9,0,0,0,2.6.157,19.559,19.559,0,0,0,13.344-5.412c-4.725-.118-8.685-3.765-10.049-8.786a11.551,11.551,0,0,0,2.03.2,9.752,9.752,0,0,0,2.828-.431C5.823,32.444,2.13,27.345,2.13,21.187V21.03a9.622,9.622,0,0,0,4.858,1.608A13.378,13.378,0,0,1,2.2,12.088,14.328,14.328,0,0,1,3.66,5.695C8.951,13.382,16.9,18.4,25.822,18.952a16.762,16.762,0,0,1-.266-2.9c0-6.981,4.792-12.668,10.748-12.668a10.044,10.044,0,0,1,7.853,4,19.334,19.334,0,0,0,6.822-3.059A12.477,12.477,0,0,1,46.253,11.3a19.039,19.039,0,0,0,6.189-1.961,25.774,25.774,0,0,1-5.391,6.55Z" transform="translate(0 -3.381)"/>
</svg>
