<svg xmlns="http://www.w3.org/2000/svg" width="569" height="362" viewBox="0 0 569 362">
  <g id="Web_Designer_Img" data-name="Web Designer Img" transform="translate(-260 -432)">
    <rect id="Rectangle_8" data-name="Rectangle 8" width="569" height="362" rx="18" transform="translate(260 432)" fill="#222"/>
    <rect id="Rectangle_9" data-name="Rectangle 9" width="354" height="362" rx="18" transform="translate(260 432)" fill="rgba(60,60,60,0.84)"/>
    <g id="Rectangle_10" data-name="Rectangle 10" transform="translate(351 540)" fill="#4e4e4e" stroke="#707070" stroke-width="1">
      <rect width="208" height="20" rx="10" stroke="none"/>
      <rect x="0.5" y="0.5" width="207" height="19" rx="9.5" fill="none"/>
    </g>
    <rect id="Rectangle_11" data-name="Rectangle 11" width="208" height="20" rx="10" transform="translate(351 540)" fill="#4e4e4e"/>
    <rect id="Rectangle_13" data-name="Rectangle 13" width="125" height="16" rx="8" transform="translate(639 520)" fill="#4e4e4e"/>
    <rect id="Rectangle_14" data-name="Rectangle 14" width="89" height="16" rx="8" transform="translate(639 489)" fill="#4e4e4e"/>
    <rect id="Rectangle_20" data-name="Rectangle 20" width="82" height="16" rx="8" transform="translate(640 644)" fill="#4e4e4e"/>
    <rect id="Rectangle_21" data-name="Rectangle 21" width="83" height="16" rx="8" transform="translate(729 643)" fill="#4e4e4e"/>
    <rect id="Rectangle_11-2" data-name="Rectangle 11" width="160" height="20" rx="10" transform="translate(351 580)" fill="#4e4e4e"/>
    <rect id="Rectangle_12" data-name="Rectangle 12" width="96" height="24" rx="6" transform="translate(351 624)" fill="#c72651"/>
    <g id="Group_3" data-name="Group 3">
      <line id="Line_4" data-name="Line 4" x2="26.236" transform="translate(769.264 452.5)" fill="none" stroke="#707070" stroke-linecap="round" stroke-width="2"/>
      <line id="Line_4-2" data-name="Line 4" x2="26.236" transform="translate(769.264 459.512)" fill="none" stroke="#707070" stroke-linecap="round" stroke-width="2"/>
      <line id="Line_4-3" data-name="Line 4" x2="26.236" transform="translate(769.264 466.523)" fill="none" stroke="#707070" stroke-linecap="round" stroke-width="2"/>
    </g>
    <rect id="Rectangle_15" data-name="Rectangle 15" width="38" height="39" rx="11" transform="translate(639 570)" fill="#646464"/>
    <rect id="Rectangle_22" data-name="Rectangle 22" width="83" height="96" rx="11" transform="translate(639 675)" fill="#646464"/>
    <rect id="Rectangle_23" data-name="Rectangle 23" width="83" height="96" rx="11" transform="translate(729 675)" fill="#646464"/>
    <rect id="Rectangle_17" data-name="Rectangle 17" width="38" height="39" rx="11" transform="translate(684 571)" fill="#646464"/>
    <rect id="Rectangle_18" data-name="Rectangle 18" width="38" height="39" rx="11" transform="translate(729 570)" fill="#646464"/>
    <rect id="Rectangle_19" data-name="Rectangle 19" width="38" height="39" rx="11" transform="translate(774 570)" fill="#646464"/>
  </g>
</svg>
